<svg xmlns="http://www.w3.org/2000/svg" xmlns:xlink="http://www.w3.org/1999/xlink" viewBox="0 0 464 213.38"><defs><style>.cls-1{fill:url(#Degradado_sin_nombre_265);}.cls-2{fill:url(#Degradado_sin_nombre_33);}.cls-3{fill:url(#Degradado_sin_nombre_262);}.cls-4{fill:url(#Degradado_sin_nombre_248);}.cls-5{fill:url(#Degradado_sin_nombre_77);}.cls-6{fill:url(#Degradado_sin_nombre_77-2);}.cls-7{fill:#794a9d;}.cls-8{fill:#8853a1;}.cls-9{fill:#c6a1cb;}.cls-10{fill:#1e4ca0;}.cls-11{fill:#5cbd95;}.cls-12{fill:#32a694;}.cls-13{fill:#2a8a8f;}.cls-14{fill:url(#Degradado_sin_nombre_167);}.cls-15{fill:#4781c3;}.cls-16{fill:#56b5e6;}.cls-17{fill:#345fac;}.cls-18{fill:#314ea2;}.cls-19{fill:#426db5;}.cls-20{fill:#315aa9;}.cls-21{fill:#52ade1;}.cls-22{fill:#4272b8;}.cls-23{fill:url(#Degradado_sin_nombre_167-2);}.cls-24{fill:#4371b8;}.cls-25,.cls-26,.cls-29{fill-rule:evenodd;}.cls-26{fill:#fff;}.cls-27{fill:url(#Degradado_sin_nombre_65);}.cls-28{fill:url(#Degradado_sin_nombre_67);}.cls-29{fill:url(#Degradado_sin_nombre_167-3);}.cls-30{fill:url(#Degradado_sin_nombre_89);}.cls-31{fill:url(#Degradado_sin_nombre_246);}.cls-32{fill:url(#Degradado_sin_nombre_120);}.cls-33{fill:url(#Degradado_sin_nombre_246-2);}.cls-34{fill:#a97ab6;}.cls-35{fill:#9964aa;}</style><linearGradient id="Degradado_sin_nombre_265" x1="413.71" y1="73.4" x2="387.04" y2="86.4" gradientUnits="userSpaceOnUse"><stop offset="0" stop-color="#f9ad86"/><stop offset="0.16" stop-color="#f69279"/><stop offset="0.36" stop-color="#f4766c"/><stop offset="0.56" stop-color="#f26263"/><stop offset="0.76" stop-color="#f0565d"/><stop offset="0.97" stop-color="#f0525b"/></linearGradient><linearGradient id="Degradado_sin_nombre_33" x1="362.72" y1="90.95" x2="400.07" y2="90.95" gradientUnits="userSpaceOnUse"><stop offset="0.34" stop-color="#f27178"/><stop offset="1" stop-color="#f1617c"/></linearGradient><linearGradient id="Degradado_sin_nombre_262" x1="386.99" y1="81.28" x2="376.77" y2="81.61" gradientUnits="userSpaceOnUse"><stop offset="0" stop-color="#d13481"/><stop offset="0.99" stop-color="#f0525b"/></linearGradient><linearGradient id="Degradado_sin_nombre_248" x1="443.55" y1="105.22" x2="440.16" y2="109.98" gradientUnits="userSpaceOnUse"><stop offset="0" stop-color="#882f53"/><stop offset="0.04" stop-color="#912d56"/><stop offset="0.17" stop-color="#a5295c"/><stop offset="0.32" stop-color="#b42661"/><stop offset="0.49" stop-color="#bc2563"/><stop offset="0.77" stop-color="#bf2464"/></linearGradient><linearGradient id="Degradado_sin_nombre_77" x1="443.28" y1="106.83" x2="440.38" y2="110.89" gradientUnits="userSpaceOnUse"><stop offset="0.24" stop-color="#ed308e"/><stop offset="1" stop-color="#df2490"/></linearGradient><linearGradient id="Degradado_sin_nombre_77-2" x1="435.09" y1="119.27" x2="444.57" y2="119.27" xlink:href="#Degradado_sin_nombre_77"/><linearGradient id="Degradado_sin_nombre_167" x1="441.9" y1="88.61" x2="427.01" y2="104.5" gradientUnits="userSpaceOnUse"><stop offset="0" stop-color="#f4bf76"/><stop offset="0.06" stop-color="#f3b173"/><stop offset="0.23" stop-color="#f28f6a"/><stop offset="0.41" stop-color="#f17463"/><stop offset="0.59" stop-color="#f1615f"/><stop offset="0.77" stop-color="#f0565c"/><stop offset="0.97" stop-color="#f0525b"/></linearGradient><linearGradient id="Degradado_sin_nombre_167-2" x1="433.39" y1="81.39" x2="411.17" y2="97.05" xlink:href="#Degradado_sin_nombre_167"/><linearGradient id="Degradado_sin_nombre_65" x1="373.12" y1="97.02" x2="412.36" y2="97.02" gradientUnits="userSpaceOnUse"><stop offset="0.36" stop-color="#f05e7e"/><stop offset="1" stop-color="#ef4d83"/></linearGradient><linearGradient id="Degradado_sin_nombre_67" x1="385.38" y1="104.63" x2="409.14" y2="104.63" gradientUnits="userSpaceOnUse"><stop offset="0.63" stop-color="#f05e7e"/><stop offset="0.75" stop-color="#f05b7f"/><stop offset="0.85" stop-color="#ef5182"/><stop offset="0.94" stop-color="#ee4188"/><stop offset="1" stop-color="#ed308e"/></linearGradient><linearGradient id="Degradado_sin_nombre_167-3" x1="444.74" y1="104.41" x2="440.02" y2="108.02" xlink:href="#Degradado_sin_nombre_167"/><linearGradient id="Degradado_sin_nombre_89" x1="437.18" y1="123.27" x2="424.88" y2="101.97" gradientUnits="userSpaceOnUse"><stop offset="0.02" stop-color="#e42c8c"/><stop offset="1" stop-color="#ed308e"/></linearGradient><linearGradient id="Degradado_sin_nombre_246" x1="435.08" y1="98.93" x2="430.92" y2="103.32" gradientUnits="userSpaceOnUse"><stop offset="0" stop-color="#882f53"/><stop offset="0.08" stop-color="#a52f64"/><stop offset="0.18" stop-color="#bf3073"/><stop offset="0.28" stop-color="#d3307f"/><stop offset="0.4" stop-color="#e23088"/><stop offset="0.54" stop-color="#ea308c"/><stop offset="0.77" stop-color="#ed308e"/></linearGradient><linearGradient id="Degradado_sin_nombre_120" x1="412.67" y1="105.1" x2="426.69" y2="105.1" gradientUnits="userSpaceOnUse"><stop offset="0" stop-color="#f05e7e"/><stop offset="0.14" stop-color="#ef4a85"/><stop offset="0.29" stop-color="#ee3b8a"/><stop offset="0.47" stop-color="#ed338d"/><stop offset="0.77" stop-color="#ed308e"/></linearGradient><linearGradient id="Degradado_sin_nombre_246-2" x1="424.94" y1="89.49" x2="416.22" y2="102.83" xlink:href="#Degradado_sin_nombre_246"/></defs><g id="Capa_1" data-name="Capa 1"><path class="cls-1" d="M408.66,75.27a44,44,0,0,0-26.27,3.12,93.64,93.64,0,0,1,22.26,5.35h0c.79.11,1.57.24,2.35.4a13.18,13.18,0,0,0,4.54.38c1.93-.31,3.92-2,3.66-4.13C414.81,77.08,411.52,75.79,408.66,75.27Z"/><path class="cls-2" d="M376.38,81.83a36.67,36.67,0,0,0-3,2.31A40.11,40.11,0,0,0,362.72,98.7a57.39,57.39,0,0,0,7.3,4.23A31.92,31.92,0,0,1,389,85a30.36,30.36,0,0,1,8.38-1.68c.89,0,1.77,0,2.66,0A104,104,0,0,0,381.19,79,37.84,37.84,0,0,0,376.38,81.83Z"/><path class="cls-3" d="M382.39,78.39c-.41.18-.81.38-1.2.58a104,104,0,0,1,18.88,4.36,41.44,41.44,0,0,1,4.58.41A93.64,93.64,0,0,0,382.39,78.39Z"/><path class="cls-4" d="M443.15,109c-.09-.15-.17-.26-.22-.34l-.13-.2a2.14,2.14,0,0,1-.13-.19l-.17-.25-.21-.32-.43-.66-.78-1.21-.69-1.13s0,0,0,.07c-.12.41-.22.82-.33,1.23a30.88,30.88,0,0,1,3.4,4.28C443.34,109.88,443.25,109.45,443.15,109Z"/><path class="cls-5" d="M440,106c0,.13-.06.25-.1.38a36.32,36.32,0,0,1,3.78,5.15c-.1-.42-.19-.83-.28-1.25A30.88,30.88,0,0,0,440,106Z"/><path class="cls-6" d="M444.18,114.36c-.12-.93-.28-1.87-.46-2.81a36.32,36.32,0,0,0-3.78-5.15c-1.69,6.44-2.73,13.06-4.6,19.45-.08.28-.16.55-.25.82a63,63,0,0,1,7.63,5.47c.25-.79.47-1.57.67-2.37A40.4,40.4,0,0,0,444.18,114.36Z"/><path class="cls-7" d="M370,102.93a57.39,57.39,0,0,1-7.3-4.23c-.31.71-.59,1.43-.86,2.16a42.44,42.44,0,0,0,7.4,4.15C369.49,104.31,369.74,103.62,370,102.93Z"/><path class="cls-8" d="M368.05,120a34.71,34.71,0,0,1,.17-10.91,31.55,31.55,0,0,1,1-4.1,42.44,42.44,0,0,1-7.4-4.15,42.65,42.65,0,0,0-2.57,12.72,44.89,44.89,0,0,0,3.08,18.47c2.94.66,6.46,1.33,10.42,1.84A38.8,38.8,0,0,1,368.05,120Z"/><path class="cls-7" d="M442.72,132.14a63,63,0,0,0-7.63-5.47c-.12.39-.25.76-.37,1.14a78.58,78.58,0,0,1,7.67,5.32C442.5,132.8,442.62,132.47,442.72,132.14Z"/><path class="cls-9" d="M442.39,133.13a78.58,78.58,0,0,0-7.67-5.32,53.25,53.25,0,0,1-2.63,6.57,37.65,37.65,0,0,1,8.3,3.53A38.56,38.56,0,0,0,442.39,133.13Z"/><path class="cls-10" d="M432.09,134.38l-.18.39a44.17,44.17,0,0,1,8.35,3.43,2.55,2.55,0,0,0,.13-.29A37.65,37.65,0,0,0,432.09,134.38Z"/><path class="cls-11" d="M398.05,160.53a43.94,43.94,0,0,0,14.51-.84c4.08-7.24,12.33-10.16,20.53-11.39l.26-.26a125,125,0,0,0-42.16,11.07A36.05,36.05,0,0,0,398.05,160.53Z"/><path class="cls-12" d="M412.56,159.69a42.93,42.93,0,0,0,13.25-5.42,38.18,38.18,0,0,0,7.28-6C424.89,149.53,416.64,152.45,412.56,159.69Z"/><path class="cls-13" d="M419.25,148.08a35.17,35.17,0,0,1-13.47,3.62h0c-6.77,2-13.3,4.14-18.56,5.94a40.39,40.39,0,0,0,4,1.47A125,125,0,0,1,433.35,148c.79-.85,1.55-1.72,2.28-2.64a92.34,92.34,0,0,0-16.35,2.67Z"/><path class="cls-14" d="M438.3,99.63c.26-2.52-1-4.68-2.46-6.62-.85-1.12-1.73-2.24-2.66-3.3s-1.07,0-1.36.88c-.72,2.07-1.16,4.26-1.74,6.38,2.51,1.71,5.06,3.57,7.64,5.61A18.76,18.76,0,0,0,438.3,99.63Z"/><path class="cls-15" d="M375.41,137.85c-3.33.4-6.59.73-9.77.92a44.2,44.2,0,0,0,3.37,4.89,48.22,48.22,0,0,0,10.84,10,65.22,65.22,0,0,0,13.75-3.28A35,35,0,0,1,375.41,137.85Z"/><path class="cls-16" d="M365.64,138.77c3.18-.19,6.44-.52,9.77-.92-.11-.14-.22-.26-.32-.4-.4-.54-.77-1.09-1.14-1.65a51.3,51.3,0,0,1-10.74-1.74A45.53,45.53,0,0,0,365.64,138.77Z"/><path class="cls-10" d="M372.79,133.89c-4-.51-7.48-1.18-10.42-1.84.26.68.55,1.35.84,2A51.3,51.3,0,0,0,374,135.8c-.41-.62-.8-1.26-1.16-1.91Z"/><path class="cls-17" d="M387.21,157.64c5.26-1.8,11.79-4,18.56-5.94l-.68,0a35.15,35.15,0,0,1-11.49-1.37,65.22,65.22,0,0,1-13.75,3.28A44.44,44.44,0,0,0,387.21,157.64Z"/><path class="cls-18" d="M427.94,141a27.77,27.77,0,0,1-3.22,3.38,27.37,27.37,0,0,1-5.44,3.68,92.34,92.34,0,0,1,16.35-2.67c.17-.2.33-.41.49-.61a38.56,38.56,0,0,0,2.66-3.92A34.07,34.07,0,0,0,427.94,141Z"/><path class="cls-10" d="M430.67,137a41.43,41.43,0,0,1,8.13,3.81c.52-.86,1-1.73,1.46-2.63a44.17,44.17,0,0,0-8.35-3.43C431.52,135.53,431.11,136.28,430.67,137Z"/><path class="cls-19" d="M427.94,141a34.07,34.07,0,0,1,10.84-.14l0,0a41.43,41.43,0,0,0-8.13-3.81A33.08,33.08,0,0,1,427.94,141Z"/><path class="cls-20" d="M399.16,148.38A30.51,30.51,0,0,0,421.41,142l.19-.16-.1,0C413.73,142.85,406.44,145.7,399.16,148.38Z"/><path class="cls-21" d="M379.26,137.36c3.65-.48,7.36-1,11.08-1.51-.28-.18-.55-.38-.82-.58a107.86,107.86,0,0,1-11.46.67C378.45,136.43,378.85,136.9,379.26,137.36Z"/><path class="cls-10" d="M376.87,134.34c.38.55.78,1.08,1.19,1.6a107.86,107.86,0,0,0,11.46-.67c-.21-.14-.42-.28-.62-.44A109.07,109.07,0,0,1,376.87,134.34Z"/><path class="cls-10" d="M416.85,134.36A57.59,57.59,0,0,1,427.23,136c.5-.68,1-1.38,1.41-2.11a53.63,53.63,0,0,0-10.06-1.31A20.81,20.81,0,0,1,416.85,134.36Z"/><path class="cls-22" d="M404.23,139.61a23,23,0,0,1-9.54-1.53l-.12-.05a22.57,22.57,0,0,1-4.23-2.18c-3.72.49-7.43,1-11.08,1.51a37.53,37.53,0,0,0,10.28,8,26.8,26.8,0,0,0,9.62,3c7.28-2.68,14.57-5.53,22.34-6.5l.1,0a31,31,0,0,0,5.63-5.86,57.59,57.59,0,0,0-10.38-1.64A20.14,20.14,0,0,1,404.23,139.61Z"/><path class="cls-23" d="M428.46,88.11c.59-2.79.41-2.34-1.56-3.83l-3.75-3c-1.06-.85-1.45-1.13-2,.33-1,2.76-1.78,5.59-2.5,8.44,2.68,1.42,5.43,3,8.22,4.82Q427.71,91.52,428.46,88.11Z"/><path class="cls-10" d="M395,134.59l.09,0,.94-.11Z"/><path class="cls-10" d="M405.08,133.45c-3.1.51-6.14.85-9.08,1.07l-.94.11c.39.18.79.34,1.19.49a134.42,134.42,0,0,1,15.15-1,13.79,13.79,0,0,0,1.78-1.14,3.83,3.83,0,0,0,.44-.36c-2.27.12-4.55.3-6.86.55Z"/><path class="cls-10" d="M406.76,133.21c2.31-.25,4.59-.43,6.86-.55l.09-.08C411.51,132.67,409.19,132.87,406.76,133.21Z"/><path class="cls-24" d="M399.71,136.05a18,18,0,0,0,11.69-1.89,134.42,134.42,0,0,0-15.15,1A18.81,18.81,0,0,0,399.71,136.05Z"/><path class="cls-25" d="M38.83,119.31c0-4.09,1.49-9,4-11.8,10.31-11.46,28.31-2.8,28.31,9,0,7.76-1.39,12.61-8.56,16.56-5.64,3.1-14,2.13-19.05-3.12-2-2.08-4.72-6.8-4.72-10.64ZM55.92,74.46A44.35,44.35,0,0,0,44.8,75.84a43.77,43.77,0,0,0-14.59,6.77,42.76,42.76,0,0,0-13,14.27,46.49,46.49,0,0,0-4.8,13.91,41,41,0,0,0,3.05,25.65,45.1,45.1,0,0,0,14.81,18,42.68,42.68,0,0,0,16.89,7.27,46.85,46.85,0,0,0,15.27.1,35.77,35.77,0,0,0,7.62-2c1.26-.49,2.41-1.15,3.64-1.69.77-.35,1.74-1.24,2.63-.94a2,2,0,0,1,.51.3,20.24,20.24,0,0,0,4,2.72,11.17,11.17,0,0,0,3.94.66c3.75.11,7.23-.6,9.92-3.41a15.94,15.94,0,0,0,4.11-9.42,15.39,15.39,0,0,0,.09-1.66V63.3c0-6-2.78-11.22-7.07-13.41a15,15,0,0,0-13.49.1c-8.08,4.36-6.8,14.06-6.68,23.59,0,.85.38,3.09-.31,3.79-.56.55-1.74-.19-2.29-.42A35.29,35.29,0,0,0,55.92,74.46Z"/><path class="cls-25" d="M206.26,63.41c-.36,18.18.08,36.37.15,54.56q0,8.43,0,16.88c0,2.88,0,5.71-.13,8.58a21.67,21.67,0,0,0,1.07,9.12c1.71,4.34,6.23,8.33,11.08,8.33,5.87,0,9.61-.69,13.1-6.3,2.81-4.53,2.14-9.08,2.14-14.49,4.33,4.92,8.38,9,11.88,12.35,5.27,5,12.9,10.72,20.5,7.6,7.15-2.94,10-12.2,6.24-18.84-1.13-2-12.85-14.39-14.48-16-1.88-1.86-4.78-4.34-6.12-6.35a17.39,17.39,0,0,1,2.51-3.49L267.3,99.8c5.51-6.18,8.44-13.92,2.08-20.81a14.26,14.26,0,0,0-11.09-4.42c-4.36.24-7.94,3-10.8,6.14-4.49,4.9-8.27,10.38-12.91,15.14a4.35,4.35,0,0,1-.87.68,18.63,18.63,0,0,1,0-4c0-1.39,0-2.78,0-4.17,0-2.85.05-5.69.06-8.54q0-4.89,0-9.79a65,65,0,0,0-.3-9.15A14.83,14.83,0,0,0,226.37,50a13.61,13.61,0,0,0-19.44,8A22,22,0,0,0,206.26,63.41Z"/><path class="cls-25" d="M282.53,63.41c-.37,18.18.07,36.37.14,54.56q0,8.43,0,16.88c0,2.88,0,5.71-.13,8.58a21.5,21.5,0,0,0,1.06,9.12c1.72,4.34,6.23,8.33,11.08,8.33,5.88,0,9.61-.69,13.1-6.3,2.81-4.53,2.15-9.08,2.15-14.49,3.55,3.92,7.5,8.07,11.87,12.35,3.43,3.37,7.43,6.92,12.23,8a14.2,14.2,0,0,0,8.48-.52,11.41,11.41,0,0,0,5.62-5c.08-.14.16-.28.25-.42a13.57,13.57,0,0,0,.17-13.32c-1.13-2-12.86-14.39-14.49-16-1.87-1.86-4.77-4.34-6.12-6.35a17.8,17.8,0,0,1,2.51-3.49L343.56,99.8c5.51-6.18,8.44-13.92,2.08-20.81a14.26,14.26,0,0,0-11.09-4.42c-4.36.24-7.94,3-10.79,6.14-4.49,4.9-8.28,10.38-12.92,15.14a4.59,4.59,0,0,1-.86.68,17.43,17.43,0,0,1,0-4c0-1.39,0-2.78,0-4.17l.06-8.54q0-4.89,0-9.79a62.11,62.11,0,0,0-.3-9.15A14.81,14.81,0,0,0,302.64,50a13.6,13.6,0,0,0-19.44,8A21,21,0,0,0,282.53,63.41Z"/><path class="cls-25" d="M145,87.81v59.95a13.42,13.42,0,0,0,4.09,9.56,13.2,13.2,0,0,0,4.75,3,15.72,15.72,0,0,0,5.67.57h.73c3.9,0,6.68-2.63,8.67-4.79,2.59-2.79,2.89-5.39,2.88-10.67,0-9.21,0-18.43,0-27.64-.08-21.4,11.94-11.8,21.12-19.79,6.8-5.92,5.39-18.81-4.2-22.66-4.92-2-13.66-.33-18.48,1.06-6.74,2-1,2.54-7.21-.3A12.79,12.79,0,0,0,145,87.81Z"/><path class="cls-25" d="M108.27,92.49c0,9.28-.75,52.39.74,58.33,3.8,15.05,27,12.93,27-3.9V87.83c0-7.18-8.16-14.94-15.8-13.15-4.45,1-6.92,2.57-9.16,5.69S108.27,87.22,108.27,92.49Z"/><path class="cls-26" d="M110.57,59.91c0,5.3,2.78,9.39,7.44,11a11.94,11.94,0,0,0,8.53,0,11.66,11.66,0,0,0,2.57-20.14,11.48,11.48,0,0,0-15.2.92A11.64,11.64,0,0,0,110.57,59.91Z"/><path class="cls-27" d="M384,103.33a24.26,24.26,0,0,1,8-6.17,21,21,0,0,1,12.81-1.34,12.11,12.11,0,0,0,3.92.59,4.57,4.57,0,0,0,3.63-4c.19-1.69-.85-2.76-2.1-3.69a9.64,9.64,0,0,0-3.84-1.48,32.11,32.11,0,0,0-23.32,4.36,25.87,25.87,0,0,0-5.94,5.69,28,28,0,0,0-4,7.09,77,77,0,0,0,8.31,3A13.18,13.18,0,0,1,384,103.33Z"/><path class="cls-28" d="M397.67,108.77a12.18,12.18,0,0,1,4.94-.66c2.28.09,4.91.35,6.15-2.09a4.68,4.68,0,0,0-1.45-5.44c-2.07-1.75-5.37-2-8-1.69a18.38,18.38,0,0,0-10.72,5.1,17.09,17.09,0,0,0-3.24,4.53c2.94.75,6.13,1.4,9.6,1.94A8.15,8.15,0,0,1,397.67,108.77Z"/><path class="cls-29" d="M443.15,109a26.9,26.9,0,0,0-1.3-4.2c-.17-.41-.41-1-.74-.94s-.61.51-.72.84c.39.65.8,1.29,1.21,2S442.64,108.26,443.15,109Z"/><path class="cls-30" d="M428.26,103.77c-1.07,4.06-2.07,8.11-3.07,12.16-.38,1.52-.72,3-1.11,4.58,2.66,1.37,5.4,2.83,8,4.38.2-.78.38-1.56.58-2.34.91-3.7,1.8-7.4,2.71-11.09.47-1.94.92-3.89,1.44-5.82.17-.64.36-1.28.55-1.92a54.34,54.34,0,0,0-7.54-5.93C429.32,99.78,428.78,101.78,428.26,103.77Z"/><path class="cls-31" d="M430.08,97s0,0,0,0l-.21.78a54.34,54.34,0,0,1,7.54,5.93c.11-.38.22-.76.32-1.14C435.14,100.54,432.59,98.68,430.08,97Z"/><path class="cls-32" d="M416.51,99.09q-2,7.88-3.84,15.77c2.29,1.11,5.13,2.47,8.21,4,0-.1.05-.18.07-.28,1.89-7.59,3.9-15.18,5.74-22.8-2.75-1.63-5.56-3.1-8.31-4.48C417.75,93.91,417.15,96.5,416.51,99.09Z"/><path class="cls-33" d="M418.69,90.07c-.11.41-.2.83-.31,1.25,2.75,1.38,5.56,2.85,8.31,4.48.07-.3.15-.61.22-.91C424.12,93.09,421.37,91.49,418.69,90.07Z"/><path class="cls-9" d="M429.52,132.32a29.83,29.83,0,0,0,2.27-6.2c-2.65-1.47-5.37-2.78-8.14-4a37.45,37.45,0,0,1-1.79,5.19,21.33,21.33,0,0,1-3.26,5.23,52.71,52.71,0,0,1,10.22,1C429.06,133.16,429.3,132.75,429.52,132.32Z"/><path class="cls-10" d="M418.6,132.56l0,0a53.63,53.63,0,0,1,10.06,1.31l.18-.31A52.71,52.71,0,0,0,418.6,132.56Z"/><path class="cls-7" d="M432.12,124.89c-2.64-1.55-5.38-3-8-4.38-.14.54-.28,1.09-.43,1.63,2.77,1.2,5.49,2.51,8.14,4C431.9,125.71,432,125.3,432.12,124.89Z"/><path class="cls-7" d="M395,110.46c-3.47-.54-6.66-1.19-9.6-1.94-.25.5-.47,1-.67,1.54,2.88.82,5.78,1.61,8.67,2.39A9,9,0,0,1,395,110.46Z"/><path class="cls-7" d="M420.88,118.88c-3.08-1.55-5.92-2.91-8.21-4-.1.38-.19.78-.28,1.16-.14.58-.29,1.17-.45,1.76,2.85.92,5.66,1.91,8.44,3C420.55,120.15,420.72,119.51,420.88,118.88Z"/><path class="cls-34" d="M407.85,125.33a8.42,8.42,0,0,1-4.89,2,10.07,10.07,0,0,1-9.29-4.68,9.94,9.94,0,0,1-1.06-8.63,8.46,8.46,0,0,1,.77-1.57c-2.89-.78-5.79-1.57-8.67-2.39A19.06,19.06,0,0,0,395,134.59l1-.07c3.61-.46,7.2-.94,10.76-1.31,2.43-.34,4.75-.54,6.95-.63h0c3.67-3,5.4-7.32,6.65-11.79-2.78-1.1-5.59-2.09-8.44-3C411.19,120.6,410.16,123.41,407.85,125.33Z"/><path class="cls-10" d="M405.08,133.45l1.68-.24c-3.56.37-7.15.85-10.76,1.31C398.94,134.3,402,134,405.08,133.45Z"/><path class="cls-35" d="M371.17,119.28a33.32,33.32,0,0,0,5.55,14.86l.15.2a109.07,109.07,0,0,0,12,.49c-.25-.19-.5-.38-.74-.59a18.47,18.47,0,0,1-4.86-5.52c-1.95-4-3.54-7.84-3.55-12.42a24.44,24.44,0,0,1,1.12-7.36q-4.23-1.26-8.41-2.73a31.52,31.52,0,0,0-1.3,13S371.17,119.27,371.17,119.28Z"/><path class="cls-7" d="M381.43,107.4a77,77,0,0,1-8.31-3c-.24.61-.46,1.23-.66,1.85q4.19,1.47,8.41,2.73C381,108.42,381.22,107.9,381.43,107.4Z"/></g></svg>