<svg id="Capa_1" data-name="Capa 1" xmlns="http://www.w3.org/2000/svg" xmlns:xlink="http://www.w3.org/1999/xlink" viewBox="0 0 3395.09 3405.27"><defs><style>.cls-1{fill:url(#Degradado_sin_nombre_265);}.cls-2{fill:url(#Degradado_sin_nombre_33);}.cls-3{fill:url(#Degradado_sin_nombre_262);}.cls-4{fill:url(#Degradado_sin_nombre_248);}.cls-5{fill:url(#Degradado_sin_nombre_77);}.cls-6{fill:url(#Degradado_sin_nombre_77-2);}.cls-7{fill:#794a9c;}.cls-8{fill:#8753a0;}.cls-9{fill:#c5a0ca;}.cls-10{fill:#1e4c9f;}.cls-11{fill:#5cbc94;}.cls-12{fill:#32a593;}.cls-13{fill:#2a898e;}.cls-14{fill:url(#Degradado_sin_nombre_167);}.cls-15{fill:#4780c2;}.cls-16{fill:#56b4e5;}.cls-17{fill:#345fab;}.cls-18{fill:#314ea1;}.cls-19{fill:#426db4;}.cls-20{fill:#315aa8;}.cls-21{fill:#52ace0;}.cls-22{fill:#4272b7;}.cls-23{fill:url(#Degradado_sin_nombre_167-2);}.cls-24{fill:#4371b7;}.cls-25{fill:url(#Degradado_sin_nombre_65);}.cls-26{fill:url(#Degradado_sin_nombre_67);}.cls-27{fill-rule:evenodd;fill:url(#Degradado_sin_nombre_167-3);}.cls-28{fill:url(#Degradado_sin_nombre_89);}.cls-29{fill:url(#Degradado_sin_nombre_246);}.cls-30{fill:url(#Degradado_sin_nombre_120);}.cls-31{fill:url(#Degradado_sin_nombre_246-2);}.cls-32{fill:#a87ab5;}.cls-33{fill:#9864a9;}</style><linearGradient id="Degradado_sin_nombre_265" x1="2515.72" y1="299.45" x2="1454.64" y2="816.73" gradientUnits="userSpaceOnUse"><stop offset="0" stop-color="#f8ac85"/><stop offset="0.16" stop-color="#f59179"/><stop offset="0.36" stop-color="#f3756c"/><stop offset="0.56" stop-color="#f16162"/><stop offset="0.76" stop-color="#ef555d"/><stop offset="0.97" stop-color="#ef515b"/></linearGradient><linearGradient id="Degradado_sin_nombre_33" x1="487.33" y1="994.52" x2="1973.3" y2="994.52" gradientUnits="userSpaceOnUse"><stop offset="0.34" stop-color="#f17178"/><stop offset="1" stop-color="#f0617c"/></linearGradient><linearGradient id="Degradado_sin_nombre_262" x1="1453.13" y1="612.66" x2="1046.39" y2="625.93" gradientUnits="userSpaceOnUse"><stop offset="0" stop-color="#d13380"/><stop offset="0.99" stop-color="#ef515b"/></linearGradient><linearGradient id="Degradado_sin_nombre_248" x1="3702.73" y1="1558.1" x2="3569.26" y2="1744.96" gradientUnits="userSpaceOnUse"><stop offset="0" stop-color="#872f53"/><stop offset="0.05" stop-color="#912d56"/><stop offset="0.18" stop-color="#a5295c"/><stop offset="0.32" stop-color="#b42661"/><stop offset="0.49" stop-color="#bc2563"/><stop offset="0.77" stop-color="#bf2464"/></linearGradient><linearGradient id="Degradado_sin_nombre_77" x1="3691.8" y1="1621.61" x2="3578.11" y2="1780.76" gradientUnits="userSpaceOnUse"><stop offset="0.24" stop-color="#ec308d"/><stop offset="1" stop-color="#de248f"/></linearGradient><linearGradient id="Degradado_sin_nombre_77-2" x1="3366.8" y1="2112.1" x2="3744.13" y2="2112.1" xlink:href="#Degradado_sin_nombre_77"/><linearGradient id="Degradado_sin_nombre_167" x1="3635.59" y1="901.78" x2="3046.62" y2="1530.3" gradientUnits="userSpaceOnUse"><stop offset="0" stop-color="#f4be76"/><stop offset="0.06" stop-color="#f3b073"/><stop offset="0.23" stop-color="#f28e6a"/><stop offset="0.41" stop-color="#f17363"/><stop offset="0.59" stop-color="#f0605f"/><stop offset="0.77" stop-color="#ef555c"/><stop offset="0.97" stop-color="#ef515b"/></linearGradient><linearGradient id="Degradado_sin_nombre_167-2" x1="3298.52" y1="615.35" x2="2416.03" y2="1237.51" xlink:href="#Degradado_sin_nombre_167"/><linearGradient id="Degradado_sin_nombre_65" x1="901.13" y1="1233.93" x2="2462.52" y2="1233.93" gradientUnits="userSpaceOnUse"><stop offset="0.36" stop-color="#ef5e7e"/><stop offset="1" stop-color="#ee4d82"/></linearGradient><linearGradient id="Degradado_sin_nombre_67" x1="1388.93" y1="1534.2" x2="2334.36" y2="1534.2" gradientUnits="userSpaceOnUse"><stop offset="0.63" stop-color="#ef5e7e"/><stop offset="0.75" stop-color="#ef5b7f"/><stop offset="0.85" stop-color="#ee5182"/><stop offset="0.94" stop-color="#ed4187"/><stop offset="1" stop-color="#ec308d"/></linearGradient><linearGradient id="Degradado_sin_nombre_167-3" x1="3749.39" y1="1526.12" x2="3564.17" y2="1667.75" xlink:href="#Degradado_sin_nombre_167"/><linearGradient id="Degradado_sin_nombre_89" x1="3447.92" y1="2270.24" x2="2962.38" y2="1429.27" gradientUnits="userSpaceOnUse"><stop offset="0.02" stop-color="#e32c8b"/><stop offset="1" stop-color="#ec308d"/></linearGradient><linearGradient id="Degradado_sin_nombre_246" x1="3367.15" y1="1308.39" x2="3199.03" y2="1485.48" gradientUnits="userSpaceOnUse"><stop offset="0" stop-color="#872f53"/><stop offset="0.08" stop-color="#a42f63"/><stop offset="0.18" stop-color="#be3072"/><stop offset="0.28" stop-color="#d2307e"/><stop offset="0.4" stop-color="#e13087"/><stop offset="0.54" stop-color="#e9308c"/><stop offset="0.77" stop-color="#ec308d"/></linearGradient><linearGradient id="Degradado_sin_nombre_120" x1="2474.75" y1="1552.86" x2="3032.41" y2="1552.86" gradientUnits="userSpaceOnUse"><stop offset="0" stop-color="#ef5e7e"/><stop offset="0.14" stop-color="#ee4a85"/><stop offset="0.29" stop-color="#ed3b89"/><stop offset="0.47" stop-color="#ec338c"/><stop offset="0.77" stop-color="#ec308d"/></linearGradient><linearGradient id="Degradado_sin_nombre_246-2" x1="2964.24" y1="933.76" x2="2612.34" y2="1471.7" xlink:href="#Degradado_sin_nombre_246"/></defs><path class="cls-1" d="M2315.2,375.64C1962.28,311.69,1593.44,350,1270,498.41c239.13,26.05,541.52,85.65,885.69,211.57h.4c31.43,4.34,62.46,9.48,93.5,15.4,59.68,11.45,120.56,24.87,180.64,15.39,76.79-12.24,156-79.73,145.62-163.42C2559.9,447.09,2429,396.17,2315.2,375.64Z" transform="translate(-349.04 -345.88)"/><path class="cls-2" d="M1030.84,634.19c-41,28.42-80.78,58.82-119,91.19C726.46,882.88,583.22,1081,487.33,1300.11c77.19,52.9,173.08,110.53,290.45,167.37,136.08-328.81,414.2-590.13,756.38-707.76,107.42-37.1,219.63-60,333.42-65.92,35.26-1.74,70.5-1.47,105.72-.33Q1597.67,570.93,1222,521.55A1559.11,1559.11,0,0,0,1030.84,634.19Z" transform="translate(-349.04 -345.88)"/><path class="cls-3" d="M1270,498.41c-16.13,7.35-32,15.23-47.93,23.14q375.63,49.25,751.27,171.92A1590.85,1590.85,0,0,1,2155.65,710C1811.48,584.06,1509.09,524.46,1270,498.41Z" transform="translate(-349.04 -345.88)"/><path class="cls-4" d="M3687.64,1707.77c-3.72-5.89-6.75-10.46-8.87-13.58-1.16-1.7-2.07-3-5.33-7.83q-2.55-3.73-5.09-7.51-3.32-4.89-6.6-9.8-4.22-6.27-8.42-12.6-8.72-13.08-17.21-26.1-15.39-23.52-30.8-47.87-14.13-22.34-27.64-44.34c-.4.79-.4,2-.8,2.76-4.59,16.06-8.78,32.24-13,48.39,50.37,51.08,93.8,109,135.17,169Q3693.34,1733.06,3687.64,1707.77Z" transform="translate(-349.04 -345.88)"/><path class="cls-5" d="M3563.85,1589.29c-1.3,4.94-2.68,9.87-4,14.81a1441.75,1441.75,0,0,1,150.22,203.37q-5.53-24.57-11.06-49.14C3657.65,1698.32,3614.22,1640.37,3563.85,1589.29Z" transform="translate(-349.04 -345.88)"/><path class="cls-6" d="M3728.48,1918.66c-4.89-36.89-11.15-74.09-18.4-111.19a1441.75,1441.75,0,0,0-150.22-203.37c-67.51,254.25-108.53,515.51-183.11,768.12-3.18,10.65-6.37,21.71-9.95,32.36,113.8,70.66,218.84,143.29,303.58,215.53,9.95-30.79,18.71-62,26.66-93.16C3748.37,2321.3,3755.93,2127.87,3728.48,1918.66Z" transform="translate(-349.04 -345.88)"/><path class="cls-7" d="M777.78,1467.48C660.41,1410.64,564.52,1353,487.33,1300.11c-12.22,28.09-23.38,56.62-34,85.35,103.85,71.64,205.57,126.27,294.37,164.08C756.85,1521.8,766.66,1494.33,777.78,1467.48Z" transform="translate(-349.04 -345.88)"/><path class="cls-8" d="M699.4,2141.69c-19.89-142.9-19.1-288.55,6.76-430.26a1173.3,1173.3,0,0,1,41.51-161.89c-88.8-37.81-190.52-92.44-294.37-164.08a1674.39,1674.39,0,0,0-102.45,502.41A1761.34,1761.34,0,0,0,473.4,2617c117,26.05,257,52.11,414.6,72.24A1523.26,1523.26,0,0,1,699.4,2141.69Z" transform="translate(-349.04 -345.88)"/><path class="cls-7" d="M3670.38,2620.11c-84.74-72.24-189.78-144.87-303.58-215.53-4.66,15-9.83,30-14.79,44.94,104.41,62.92,206.3,132.36,305.06,210.06C3661.59,2646.44,3666.22,2633.34,3670.38,2620.11Z" transform="translate(-349.04 -345.88)"/><path class="cls-9" d="M3657.07,2659.58c-98.76-77.7-200.65-147.14-305.06-210.06-29.24,88.35-63.61,175.63-104.54,259.25a1515.31,1515.31,0,0,1,330.37,139.47A1544.34,1544.34,0,0,0,3657.07,2659.58Z" transform="translate(-349.04 -345.88)"/><path class="cls-10" d="M3247.47,2708.77c-2.45,5-4.69,10.16-7.2,15.16,131.31,39.07,241.92,87.23,332.24,135.78,1.92-3.75,3.44-7.7,5.33-11.47A1515.31,1515.31,0,0,0,3247.47,2708.77Z" transform="translate(-349.04 -345.88)"/><path class="cls-11" d="M1893.05,3741.16a1774.45,1774.45,0,0,0,577.49-33.33c162.23-285.95,490.36-401.12,816.51-449.55,3.47-3.59,7.18-6.92,10.61-10.54-580.87,46-1129.83,191.68-1677.44,437C1709.48,3712.05,1800.88,3731.3,1893.05,3741.16Z" transform="translate(-349.04 -345.88)"/><path class="cls-12" d="M2470.54,3707.83c185.74-41.79,364.57-113.51,527-214.17,107.36-66.71,203.17-145.93,289.48-235.38C2960.9,3306.71,2632.77,3421.88,2470.54,3707.83Z" transform="translate(-349.04 -345.88)"/><path class="cls-13" d="M2736.56,3249.32c-165.52,84.08-352.92,131-535.95,142.89h-.4C1930.85,3470.77,1671,3556,1461.74,3627.08a1628.5,1628.5,0,0,0,158.48,57.68c547.61-245.34,1096.57-391,1677.44-437q47.22-49.84,90.63-103.82c-178.25,7.5-406.24,47.77-650.54,105A1.44,1.44,0,0,0,2736.56,3249.32Z" transform="translate(-349.04 -345.88)"/><path class="cls-14" d="M3494.52,1336.82c10.35-99.08-39.79-184.73-97.88-261.31-33.82-44.21-68.83-88-105.83-129.87-39-44.61-42.58.79-54.12,34.74-28.64,81.71-46.15,168.15-69.23,251.84q149.8,101.25,304,221C3481.79,1415,3490.54,1376.3,3494.52,1336.82Z" transform="translate(-349.04 -345.88)"/><path class="cls-15" d="M992.06,2845.7c-132.15,15.88-262,28.91-388.36,36.23a1729.1,1729.1,0,0,0,133.9,193.31c120,149.83,267,284.53,431.19,393.58,186.78-19.87,367.73-69.37,547.12-129.32C1430.63,3257.23,1174.77,3086.12,992.06,2845.7Z" transform="translate(-349.04 -345.88)"/><path class="cls-16" d="M603.7,2881.93c126.35-7.32,256.21-20.35,388.36-36.23-4-5.33-8.57-10.2-12.55-15.59-15.76-21.41-30.78-43.13-45.26-65.15-143.89-8.73-286.57-29.84-427.28-68.7A1792.63,1792.63,0,0,0,603.7,2881.93Z" transform="translate(-349.04 -345.88)"/><path class="cls-10" d="M888,2689.19C730.44,2669.06,590.38,2643,473.4,2617c10.47,26.74,21.8,53.12,33.57,79.31,140.71,38.86,283.39,60,427.28,68.7-16.23-24.67-31.75-49.72-46.25-75.38Z" transform="translate(-349.04 -345.88)"/><path class="cls-17" d="M1461.74,3627.08c209.29-71,469.11-156.31,738.47-234.87-9.15.79-17.9,1.19-27.05,1.58-156.15,7.4-310.46-12-457.25-54.29-179.39,59.95-360.34,109.45-547.12,129.32C1261.53,3530.42,1359.62,3584.05,1461.74,3627.08Z" transform="translate(-349.04 -345.88)"/><path class="cls-18" d="M3082.2,2970.48c-38.78,47.7-81.23,92.43-128,133.18-65.25,56.84-138.47,105.4-216.45,145.26,244.3-57.23,472.29-97.5,650.54-105,6.76-7.89,13.13-16.18,19.49-24.08a1594.16,1594.16,0,0,0,105.92-154.79C3376.2,2938.61,3229,2951.21,3082.2,2970.48Z" transform="translate(-349.04 -345.88)"/><path class="cls-10" d="M3191,2812.91a1656.76,1656.76,0,0,1,323.63,150.58c20.49-34,40.08-68.43,57.9-103.78-90.32-48.55-200.93-96.71-332.24-135.78C3224.91,2754.24,3208.26,2783.78,3191,2812.91Z" transform="translate(-349.04 -345.88)"/><path class="cls-19" d="M3082.2,2970.48c146.82-19.27,294-31.87,431.5-5.43.31-.51.6-1,.91-1.56A1656.76,1656.76,0,0,0,3191,2812.91C3158.3,2868,3122.44,2921,3082.2,2970.48Z" transform="translate(-349.04 -345.88)"/><path class="cls-20" d="M1937.09,3261.48c311,37.09,634.86-55.9,885.41-251,2.59-2,4.91-4.34,7.48-6.37-1.29.14-2.6.31-3.9.45C2517.07,3042.9,2226.81,3155.61,1937.09,3261.48Z" transform="translate(-349.04 -345.88)"/><path class="cls-21" d="M1145.34,2826.45c145.28-19.14,292.73-40.28,440.85-59.73-11.13-7.22-21.73-15.14-32.55-22.78-152.34,15.67-304.62,26.67-455.94,26.41Q1120.83,2799.12,1145.34,2826.45Z" transform="translate(-349.04 -345.88)"/><path class="cls-10" d="M1050.33,2707.35c15.12,21.67,31,42.6,47.37,63,151.32.26,303.6-10.74,455.94-26.41-8.2-5.78-16.69-11.19-24.65-17.25A4583,4583,0,0,1,1050.33,2707.35Z" transform="translate(-349.04 -345.88)"/><path class="cls-10" d="M2640.89,2707.85c141.13,10,279.29,30.46,413.14,64.81,19.84-26.91,38.71-54.54,56.14-83.08-119-27.24-252.26-46.18-400.27-51.71C2688.41,2662.86,2665.08,2685.86,2640.89,2707.85Z" transform="translate(-349.04 -345.88)"/><path class="cls-22" d="M2138.94,2915.37A929.64,929.64,0,0,1,1759.36,2855c-1.59-.79-3.19-1.19-4.78-2a917.38,917.38,0,0,1-168.39-86.28c-148.12,19.45-295.57,40.59-440.85,59.73,115.42,128.68,254.85,232.41,409.11,315.5,120.82,65.05,250.6,103.78,382.64,119.53,289.72-105.87,580-218.58,889-256.9,1.3-.14,2.61-.31,3.9-.45A1213.82,1213.82,0,0,0,3054,2772.66c-133.85-34.35-272-54.85-413.14-64.81C2506.54,2830,2332.82,2905,2138.94,2915.37Z" transform="translate(-349.04 -345.88)"/><path class="cls-23" d="M3103,882.48c23.47-110.52,16.31-92.37-62.07-151.18,0,0-148-116.84-149.21-117.63-42.17-33.56-57.69-44.61-78,12.63-39.39,109.34-70.83,221.05-99.48,333.16,106.64,56.44,216.05,119.6,327.06,190.26Q3073,1016.49,3103,882.48Z" transform="translate(-349.04 -345.88)"/><path class="cls-10" d="M1770.5,2717.21c1.21.55,2.47,1,3.69,1.51,12.44-1.54,24.89-3,37.32-4.6C1797.86,2715.12,1784,2716.35,1770.5,2717.21Z" transform="translate(-349.04 -345.88)"/><path class="cls-10" d="M2172.76,2672.21c-123.3,19.8-244.13,33.29-361.25,41.91-12.43,1.55-24.88,3.06-37.32,4.6q23.31,10.38,47.2,19.23c202.51-22.66,404.68-38.22,602.83-37.75,24.48-13.51,48.35-28.14,70.82-45a218.32,218.32,0,0,0,17.7-14.39c-90.38,4.54-181.4,12-273,21.55C2217.59,2665.47,2195.43,2668.53,2172.76,2672.21Z" transform="translate(-349.04 -345.88)"/><path class="cls-10" d="M2239.77,2662.4c91.57-9.54,182.59-17,273-21.55,1.13-1,2.22-1.88,3.39-3A2750.65,2750.65,0,0,0,2239.77,2662.4Z" transform="translate(-349.04 -345.88)"/><path class="cls-24" d="M1959.1,2774.85c156.76,26.53,325.35,2.51,465.12-74.65-198.15-.47-400.32,15.09-602.83,37.75A766.74,766.74,0,0,0,1959.1,2774.85Z" transform="translate(-349.04 -345.88)"/><path class="cls-25" d="M1333.23,1482.88c95.89-100.66,187.8-186.32,318.3-243.16,159.55-69.48,339-89.21,509.69-53.29,49.73,10.26,103.45,30,156,23.68,76.39-8.68,136.47-86,144.43-159.07,7.56-66.71-33.82-108.95-83.56-145.27C2333.1,873,2279,858,2225.28,847.35c-306.77-61.18-664.07-2-927.86,172.1-91.12,60-169.1,139.35-236.34,224.61-67.25,84.87-120.56,179.61-159.95,279.87,97.88,42.24,207.69,82.89,330.64,120C1256.83,1583.53,1290.26,1527.87,1333.23,1482.88Z" transform="translate(-349.04 -345.88)"/><path class="cls-26" d="M1877.93,1697.61c62.46-23.68,130.1-28.42,196.55-25.66,90.72,3.16,195.36,13.82,244.7-82.89,36.2-71.45,4-163.42-57.7-214.74-82.36-68.68-213.66-78.15-317.11-66.31-158,18.55-313.53,89.21-426.53,201.31-53.31,52.5-96.28,113.29-128.91,178.42,117,29.61,243.9,55.66,382,77C1802.33,1735.9,1838.14,1712.61,1877.93,1697.61Z" transform="translate(-349.04 -345.88)"/><path class="cls-27" d="M3687.64,1707.77c-19.58-82.63-39.07-135.46-51.87-166.08-6.7-16-16.28-38.55-29.44-37.1-14.33,1.57-24.27,20.52-28.65,33.55Q3601,1576,3626,1614.78,3656.85,1662.63,3687.64,1707.77Z" transform="translate(-349.04 -345.88)"/><path class="cls-28" d="M3095.05,1500.64c-42.58,159.87-82.36,319.74-122.15,480-15.12,60-28.65,120.39-44.17,180.39,105.84,54.08,214.86,112.11,319.9,172.9,8-30.4,15.12-61.19,23.08-92,36.2-146,71.62-292.1,107.82-437.76,18.7-77,36.61-154,57.3-230.13,7-25.15,14.4-50.3,21.73-75.44-92.55-87.79-194.11-164.68-299.89-234.06C3137.24,1343.1,3115.79,1421.83,3095.05,1500.64Z" transform="translate(-349.04 -345.88)"/><path class="cls-29" d="M3167.46,1232.22c0,.39-.39.79-.39,1.18-2.83,10.36-5.57,20.8-8.4,31.16,105.78,69.38,207.34,146.27,299.89,234.06,4.4-15.12,8.85-30.23,12.88-45.35Q3317.47,1333.08,3167.46,1232.22Z" transform="translate(-349.04 -345.88)"/><path class="cls-30" d="M2627.54,1315.9q-77.6,310.86-152.79,622.5c91.12,43.82,204.11,97.5,326.66,158.29.8-3.55,2-7.1,2.79-10.66,75.35-299.79,155.31-599.26,228.21-900.07-109.34-64.42-221-122.32-330.29-176.93C2676.76,1111.14,2652.88,1213.62,2627.54,1315.9Z" transform="translate(-349.04 -345.88)"/><path class="cls-31" d="M2714.27,959.46c-4.2,16.48-8.05,33.06-12.15,49.57,109.32,54.61,221,112.51,330.29,176.93,2.93-12.09,6-24.15,8.92-36.24C2930.32,1079.06,2820.91,1015.9,2714.27,959.46Z" transform="translate(-349.04 -345.88)"/><path class="cls-9" d="M3145.18,2627.22c41.34-79.06,67.91-161,90.5-244.65-105.8-58-214-109.82-324-157-19.29,69.57-41.76,138.26-71.26,204.63-34,76.51-77.49,146-129.6,206.5,137.75,1.48,273.47,13.22,406.4,40.31C3126.82,2660.62,3136.28,2644.25,3145.18,2627.22Z" transform="translate(-349.04 -345.88)"/><path class="cls-10" d="M2710.8,2636.74c-.31.36-.59.77-.9,1.13,148,5.53,281.3,24.47,400.27,51.71,2.48-4.12,4.61-8.4,7-12.53C2984.27,2650,2848.55,2638.22,2710.8,2636.74Z" transform="translate(-349.04 -345.88)"/><path class="cls-7" d="M3248.63,2333.93c-105-60.79-214.06-118.82-319.9-172.9q-8.16,32.38-17.07,64.58c110.06,47.14,218.22,99,324,157C3240.05,2366.38,3244.5,2350.24,3248.63,2333.93Z" transform="translate(-349.04 -345.88)"/><path class="cls-7" d="M1770.9,1764.72c-138.07-21.32-265-47.37-382-77-10,19.87-18.66,40.36-26.76,61,114.82,32.48,229.94,63.53,344.92,94.31C1724.66,1814.16,1745.83,1787.47,1770.9,1764.72Z" transform="translate(-349.04 -345.88)"/><path class="cls-7" d="M2801.41,2096.69c-122.55-60.79-235.54-114.47-326.66-158.29-4,15-7.56,30.4-11.14,45.4-5.62,23-11.56,46.24-17.8,69.48,113.2,36.45,225.16,75.77,335.53,119C2788.38,2147.18,2795,2121.94,2801.41,2096.69Z" transform="translate(-349.04 -345.88)"/><path class="cls-32" d="M2283,2351.69c-60.48,49.74-114.19,69.47-194.56,78.95-144,17.36-291.25-64.74-369.64-184.74-64.85-99.08-82.75-229-42.17-340.66,7.91-21.78,18.5-42.4,30.49-62.15-115-30.78-230.1-61.83-344.92-94.31-66.35,169.17-69.37,362.71-6.27,535.41,71.23,194.21,226.4,349.74,414.6,433,13.54-.86,27.36-2.09,41-3.09,143.42-18,286.43-37,428.26-51.72a2750.65,2750.65,0,0,1,276.36-24.53c.4-.39.4-.39.79-.39,145.93-119.2,215-288.92,264.42-465.19-110.37-43.24-222.33-82.56-335.53-119C2415.85,2164.92,2374.85,2275.89,2283,2351.69Z" transform="translate(-349.04 -345.88)"/><path class="cls-10" d="M2172.76,2672.21c22.67-3.68,44.83-6.74,67-9.81-141.83,14.76-284.84,33.75-428.26,51.72C1928.63,2705.5,2049.46,2692,2172.76,2672.21Z" transform="translate(-349.04 -345.88)"/><path class="cls-33" d="M823.54,2112.87c23.47,208.82,102.25,412.9,220.82,586.19l6,8.29A4583,4583,0,0,0,1529,2726.69c-10-7.5-19.9-15.4-29.45-23.29-70.82-58-152.39-134.61-193.37-217.9-77.59-158.29-140.85-309.86-141.25-490.26-.33-91,13.41-194.52,44.61-290.65-112.18-33.42-223.81-69-334.57-107.73-53.36,165-70.87,341.87-51.82,513.65C823.14,2111.3,823.54,2112.09,823.54,2112.87Z" transform="translate(-349.04 -345.88)"/><path class="cls-7" d="M1231.77,1643.93c-123-37.11-232.76-77.76-330.64-120q-14.32,36-26.17,72.93c110.76,38.7,222.39,74.31,334.57,107.73C1216.21,1684,1223.41,1663.63,1231.77,1643.93Z" transform="translate(-349.04 -345.88)"/></svg>