<svg width="30" height="30" viewBox="0 0 72 72" fill="none" xmlns="http://www.w3.org/2000/svg">
<path d="M27.1234 40.3332V27.1903H25V25H28.1853C28.7715 25 29.2471 25.4903 29.2471 26.0953V39.2381H42.4535L44.5769 30.4762H31.3705V28.2856H45.9382C46.5245 28.2856 47 28.7759 47 29.3809C47 29.4707 46.9893 29.56 46.9682 29.647L44.3137 40.5993C44.1954 41.0866 43.771 41.4285 43.284 41.4285H28.1853C27.599 41.4285 27.1234 40.9382 27.1234 40.3332ZM29.2468 47.9997C28.074 47.9997 27.1234 47.0189 27.1234 45.8094C27.1234 44.5999 28.0743 43.6191 29.2468 43.6191C30.4194 43.6191 31.3703 44.5999 31.3703 45.8094C31.3703 47.0189 30.4194 47.9997 29.2468 47.9997V47.9997ZM41.9881 47.9997C40.8153 47.9997 39.8647 47.0189 39.8647 45.8094C39.8647 44.5999 40.8155 43.6191 41.9881 43.6191C43.1607 43.6191 44.1115 44.5999 44.1115 45.8094C44.1115 47.0189 43.1607 47.9997 41.9881 47.9997Z" fill="#212121" stroke="#212121" stroke-width="0.7"/>
<path d="M60 37.5004C59.881 38.3458 59.7908 39.1974 59.638 40.0378C58.393 46.8933 54.8722 52.2761 49.0642 56.1147C44.8057 58.9288 40.0712 60.2162 34.9797 59.9707C28.0407 59.6364 22.2416 56.831 17.6135 51.6349C17.5133 51.5221 17.4081 51.4132 17.2127 51.204V54.077H14.4371V46.2734H21.8984V49.0587H19.2017C23.2073 54.4928 31.6129 58.6758 40.5308 56.6907C45.7914 55.5198 50.0399 52.7345 53.1888 48.3586C56.3263 43.9991 57.5538 39.0947 57.0791 33.7095C57.5463 33.6569 57.9909 33.608 58.4356 33.5579C58.884 33.5078 59.3311 33.4565 59.8234 33.4014C59.8847 33.7821 59.9423 34.1415 60 34.5022V37.5029V37.5004Z" fill="#212121" stroke="#212121" stroke-width="0.7"/>
<path d="M37.492 12C38.3224 12.1152 39.1579 12.2066 39.9845 12.3507C45.2827 13.2737 49.7754 15.7033 53.4866 19.5882C53.7309 19.8449 53.9701 20.1067 54.2883 20.4473V17.6833H57.0764V25.14H49.5362V22.3685H52.1227C47.8841 17.0058 39.253 13.0958 30.2963 15.6019C20.6832 18.2932 13.6253 27.76 14.948 38.7034C14.0436 38.8211 13.1368 38.9388 12.0985 39.0728C12.0659 37.6564 11.9544 36.285 12.0183 34.9224C12.2237 30.5416 13.5038 26.4813 15.9487 22.8306C19.7639 17.1348 25.0796 13.6732 31.8081 12.3857C32.7249 12.2104 33.6593 12.1265 34.5849 12C35.5544 12 36.5226 12 37.492 12Z" fill="#212121" stroke="#212121" stroke-width="0.7"/>
</svg>
